<svg width="133" height="111" viewBox="0 0 133 111" fill="none" xmlns="http://www.w3.org/2000/svg">
<path opacity="0.3" d="M67.2 101.6C95.2 101.6 117.9 78.9 117.9 50.8C117.9 22.7 95.2 0 67.2 0C39.2 0 16.5 22.7 16.5 50.8C16.5 78.9 39.2 101.6 67.2 101.6Z" fill="#758494"/>
<path opacity="0.3" d="M123.7 29.9002C125.964 29.9002 127.8 28.0646 127.8 25.8002C127.8 23.5358 125.964 21.7002 123.7 21.7002C121.435 21.7002 119.6 23.5358 119.6 25.8002C119.6 28.0646 121.435 29.9002 123.7 29.9002Z" fill="#C0C0C0"/>
<path opacity="0.3" d="M129.7 13.8002C131.247 13.8002 132.5 12.5466 132.5 11.0002C132.5 9.4538 131.247 8.2002 129.7 8.2002C128.154 8.2002 126.9 9.4538 126.9 11.0002C126.9 12.5466 128.154 13.8002 129.7 13.8002Z" fill="#C0C0C0"/>
<path opacity="0.3" d="M13.0002 32.8002C14.5466 32.8002 15.8002 31.5466 15.8002 30.0002C15.8002 28.4538 14.5466 27.2002 13.0002 27.2002C11.4538 27.2002 10.2002 28.4538 10.2002 30.0002C10.2002 31.5466 11.4538 32.8002 13.0002 32.8002Z" fill="#C0C0C0"/>
<path opacity="0.3" d="M18.2 93.6998C21.0719 93.6998 23.4 91.3717 23.4 88.4998C23.4 85.6279 21.0719 83.2998 18.2 83.2998C15.3281 83.2998 13 85.6279 13 88.4998C13 91.3717 15.3281 93.6998 18.2 93.6998Z" fill="#C0C0C0"/>
<g filter="url(#filter0_d_389_4216)">
<path d="M114.2 30.5002H27.4996C25.5996 30.5002 24.0996 29.0002 24.0996 27.1002V7.6002C24.0996 5.7002 25.5996 4.2002 27.4996 4.2002H114.1C116 4.2002 117.5 5.7002 117.5 7.6002V27.1002C117.6 29.0002 116 30.5002 114.2 30.5002Z" fill="white"/>
</g>
<path d="M45.0996 17.2998C45.0996 19.4998 44.0996 21.4998 42.5996 22.8998C41.2996 24.0998 39.4996 24.7998 37.5996 24.7998C35.6996 24.7998 33.8996 24.0998 32.5996 22.8998C30.9996 21.4998 30.0996 19.4998 30.0996 17.2998C30.0996 13.1998 33.4996 9.7998 37.5996 9.7998C41.6996 9.7998 45.0996 13.1998 45.0996 17.2998Z" fill="#F2F2F2"/>
<path d="M42.5996 22.9002C41.2996 24.1002 39.4996 24.8002 37.5996 24.8002C35.6996 24.8002 33.8996 24.1002 32.5996 22.9002C33.1996 22.7002 33.8996 22.4002 34.7996 22.0002C34.9996 21.9002 35.1996 21.7002 35.2996 21.5002C35.3996 21.4002 35.3996 21.2002 35.3996 21.1002V19.2002L35.2996 19.1002C35.0996 18.9002 34.9996 18.6002 34.9996 18.3002L34.7996 18.2002C34.2996 18.3002 34.3996 17.8002 34.1996 16.8002C34.1996 16.4002 34.1996 16.3002 34.3996 16.2002L34.5996 16.0002C33.6996 13.9002 34.0996 12.6002 35.0996 12.1002C34.7996 11.4002 34.7996 11.2002 34.7996 11.2002C34.7996 11.2002 36.7996 11.5002 37.3996 11.4002C38.2996 11.2002 39.5996 11.4002 40.0996 12.6002C40.8996 12.9002 41.1996 13.4002 41.2996 14.0002C41.3996 14.9002 40.8996 15.9002 40.7996 16.2002C40.8996 16.3002 40.9996 16.4002 40.8996 16.7002C40.7996 17.6002 40.7996 18.2002 40.2996 18.1002L39.8996 19.0002C39.8996 19.1002 39.8996 19.1002 39.8996 19.2002C39.8996 19.3002 39.8996 19.6002 39.8996 21.2002C39.8996 21.4002 39.9996 21.6002 39.9996 21.7002C40.0996 21.9002 40.2996 22.0002 40.3996 22.1002C41.2996 22.4002 41.9996 22.7002 42.5996 22.9002Z" fill="white"/>
<path d="M40.8255 16.3002C40.8255 16.092 40.7214 15.7798 40.6173 15.5716V15.4676C40.201 14.6349 39.3684 14.3227 38.5357 14.3227C36.4541 14.2186 36.2459 14.6349 35.5173 14.0104C35.7255 14.3227 35.7255 14.8431 35.4132 15.4676C35.2051 15.8839 34.7888 16.092 34.3724 16.1961C33.4357 14.0104 33.852 12.6573 34.8928 12.1369C34.5806 11.4084 34.5806 11.2002 34.5806 11.2002C34.5806 11.2002 36.6622 11.5124 37.2867 11.4084C38.2235 11.2002 39.5765 11.4084 40.0969 12.6573C40.9296 12.9696 41.2418 13.49 41.3459 14.1145C41.45 14.8431 40.9296 15.8839 40.8255 16.3002Z" fill="#758494"/>
<path d="M39.9998 21.7006V22.1006H35.2998V21.6006C35.3998 21.5006 35.3998 21.3006 35.3998 21.2006V19.3006L35.2998 19.2006V19.1006C35.3998 19.3006 35.4998 19.4006 35.6998 19.6006L37.1998 20.6006C37.4998 20.9006 37.9998 20.9006 38.3998 20.6006L39.7998 19.4006L39.8998 19.3006C39.8998 19.4006 39.8998 19.7006 39.8998 21.3006C39.7998 21.4006 39.8998 21.5006 39.9998 21.7006Z" fill="url(#paint0_linear_389_4216)"/>
<path d="M69.6992 15.1H50.4992C49.9992 15.1 49.6992 14.7 49.6992 14.3V11.8C49.6992 11.3 50.0992 11 50.4992 11H69.6992C70.1992 11 70.4992 11.4 70.4992 11.8V14.3C70.4992 14.8 70.1992 15.1 69.6992 15.1Z" fill="#CED6E2"/>
<path d="M92.4992 23.6H50.4992C49.9992 23.6 49.6992 23.2 49.6992 22.8V20.3C49.6992 19.8 50.0992 19.5 50.4992 19.5H92.4992C92.9992 19.5 93.2992 19.9 93.2992 20.3V22.8C93.2992 23.3 92.8992 23.6 92.4992 23.6Z" fill="#CED6E2"/>
<g filter="url(#filter1_d_389_4216)">
<path d="M114.2 96.0998H27.4996C25.5996 96.0998 24.0996 94.5998 24.0996 92.6998V73.1998C24.0996 71.2998 25.5996 69.7998 27.4996 69.7998H114.1C116 69.7998 117.5 71.2998 117.5 73.1998V92.6998C117.6 94.5998 116 96.0998 114.2 96.0998Z" fill="white"/>
</g>
<path d="M45.0996 82.8994C45.0996 85.0994 44.0996 87.0994 42.5996 88.4994C41.2996 89.6994 39.4996 90.3994 37.5996 90.3994C35.6996 90.3994 33.8996 89.6994 32.5996 88.4994C30.9996 87.0994 30.0996 85.0994 30.0996 82.8994C30.0996 78.7994 33.4996 75.3994 37.5996 75.3994C41.6996 75.3994 45.0996 78.7994 45.0996 82.8994Z" fill="#F2F2F2"/>
<path d="M42.5996 88.4998C41.2996 89.6998 39.4996 90.3998 37.5996 90.3998C35.6996 90.3998 33.8996 89.6998 32.5996 88.4998C33.1996 88.2998 33.8996 87.9998 34.7996 87.5998C34.9996 87.4998 35.1996 87.2998 35.2996 87.0998C35.3996 86.9998 35.3996 86.7998 35.3996 86.6998V84.7998L35.2996 84.6998C35.0996 84.4998 34.9996 84.1998 34.9996 83.8998L34.7996 83.7998C34.2996 83.8998 34.3996 83.3998 34.1996 82.3998C34.1996 81.9998 34.1996 81.8998 34.3996 81.7998L34.5996 81.5998C33.6996 79.4998 34.0996 78.1998 35.0996 77.6998C34.7996 76.9998 34.7996 76.7998 34.7996 76.7998C34.7996 76.7998 36.7996 77.0998 37.3996 76.9998C38.2996 76.7998 39.5996 76.9998 40.0996 78.1998C40.8996 78.4998 41.1996 78.9998 41.2996 79.5998C41.3996 80.4998 40.8996 81.4998 40.7996 81.7998C40.8996 81.8998 40.9996 81.9998 40.8996 82.2998C40.7996 83.1998 40.7996 83.7998 40.2996 83.6998L39.8996 84.4998C39.8996 84.5998 39.8996 84.5998 39.8996 84.6998C39.8996 84.7998 39.8996 85.0998 39.8996 86.6998C39.8996 86.8998 39.9996 87.0998 39.9996 87.1998C40.0996 87.3998 40.2996 87.4998 40.3996 87.5998C41.2996 88.0998 41.9996 88.2998 42.5996 88.4998Z" fill="white"/>
<path d="M40.8255 81.8998C40.8255 81.6917 40.7214 81.3794 40.6173 81.1712V81.0672C40.201 80.2345 39.3684 79.9223 38.5357 79.9223C36.4541 79.8182 36.2459 80.2345 35.5173 79.61C35.7255 79.9223 35.7255 80.4427 35.4132 81.0672C35.2051 81.4835 34.7888 81.6917 34.3724 81.7957C33.4357 79.61 33.852 78.257 34.8928 77.7365C34.5806 77.008 34.5806 76.7998 34.5806 76.7998C34.5806 76.7998 36.6622 77.112 37.2867 77.008C38.2235 76.7998 39.5765 77.008 40.0969 78.257C40.9296 78.5692 41.2418 79.0896 41.3459 79.7141C41.45 80.5468 40.9296 81.4835 40.8255 81.8998Z" fill="#758494"/>
<path d="M39.9998 87.3002V87.7002H35.2998V87.2002C35.3998 87.1002 35.3998 86.9002 35.3998 86.8002V84.9002L35.2998 84.8002V84.7002C35.3998 84.9002 35.4998 85.0002 35.6998 85.2002L37.1998 86.2002C37.4998 86.5002 37.9998 86.5002 38.3998 86.2002L39.7998 85.0002L39.8998 84.9002C39.8998 85.0002 39.8998 85.3002 39.8998 86.9002C39.7998 87.0002 39.8998 87.2002 39.9998 87.3002Z" fill="url(#paint1_linear_389_4216)"/>
<path d="M69.6992 80.8002H50.4992C49.9992 80.8002 49.6992 80.4002 49.6992 80.0002V77.5002C49.6992 77.0002 50.0992 76.7002 50.4992 76.7002H69.6992C70.1992 76.7002 70.4992 77.1002 70.4992 77.5002V80.0002C70.4992 80.4002 70.1992 80.8002 69.6992 80.8002Z" fill="#CED6E2"/>
<path d="M92.4992 89.3002H50.4992C49.9992 89.3002 49.6992 88.9002 49.6992 88.5002V86.0002C49.6992 85.5002 50.0992 85.2002 50.4992 85.2002H92.4992C92.9992 85.2002 93.2992 85.6002 93.2992 86.0002V88.5002C93.2992 88.9002 92.8992 89.3002 92.4992 89.3002Z" fill="#CED6E2"/>
<g filter="url(#filter2_d_389_4216)">
<path d="M99.5 63.3H12.9C11 63.3 9.5 61.8 9.5 59.9V40.4C9.5 38.5 11 37 12.9 37H99.5C101.4 37 102.9 38.5 102.9 40.4V59.9C103 61.8 101.4 63.3 99.5 63.3Z" fill="white"/>
</g>
<path d="M55.0996 47.8998H35.8996C35.3996 47.8998 35.0996 47.4998 35.0996 47.0998V44.5998C35.0996 44.0998 35.4996 43.7998 35.8996 43.7998H55.0996C55.5996 43.7998 55.8996 44.1998 55.8996 44.5998V47.0998C55.8996 47.5998 55.5996 47.8998 55.0996 47.8998Z" fill="#CED6E2"/>
<path d="M77.8996 56.4994H35.8996C35.3996 56.4994 35.0996 56.0994 35.0996 55.6994V53.1994C35.0996 52.6994 35.4996 52.3994 35.8996 52.3994H77.7996C78.2996 52.3994 78.5996 52.7994 78.5996 53.1994V55.6994C78.6996 56.0994 78.2996 56.4994 77.8996 56.4994Z" fill="#CED6E2"/>
<path d="M30.6 50.0996C30.6 52.1996 29.7 54.0996 28.3 55.4996C28.2 55.5996 28.2 55.5996 28.1 55.6996C26.8 56.8996 25 57.5996 23.1 57.5996C21.2 57.5996 19.5 56.8996 18.2 55.7996C18.2 55.7996 18.2 55.7996 18.1 55.7996C16.5 54.3996 15.5 52.3996 15.5 50.0996C15.5 45.9996 18.9 42.5996 23 42.5996C27.2 42.5996 30.6 45.9996 30.6 50.0996Z" fill="#F2F2F2"/>
<path d="M28.2707 55.6515C27.9665 54.9416 27.4594 54.3331 26.6482 53.9275C26.2425 53.7247 25.9383 53.6233 25.4312 53.6233H25.127C24.4171 53.6233 24.3157 53.5219 24.3157 53.5219V52.305C25.127 51.6965 25.7355 50.8852 25.9383 49.9725C26.4453 49.8711 26.7496 49.4655 26.6482 48.9584C26.6482 48.7556 26.4453 48.5528 26.4453 48.35C26.4453 48.2486 26.4453 48.1472 26.4453 48.0457C26.4453 47.9443 26.4453 47.9443 26.4453 47.8429C26.4453 47.7415 26.4453 47.7415 26.4453 47.6401C26.4453 47.2345 26.3439 46.9302 26.0397 46.5246C25.4312 45.4091 24.2143 44.6992 22.896 44.6992C22.5918 44.6992 22.3889 44.6992 22.0847 44.8006C21.5777 44.902 21.172 45.1049 20.7664 45.4091C20.665 45.5105 20.665 45.5105 20.5636 45.6119C20.5636 45.6119 20.5636 45.6119 20.4622 45.7133C20.0565 46.119 19.7523 46.626 19.5495 47.1331C19.3466 47.6401 19.3466 48.2486 19.3466 48.857C19.3466 48.857 19.3466 48.857 19.3466 48.9584C19.3466 49.0598 19.3466 49.0598 19.3466 49.1612C19.3466 49.1612 19.3466 49.2627 19.2452 49.2627C19.4481 49.0598 19.3466 49.3641 19.4481 49.5669C19.6509 50.0739 19.9551 49.9725 20.3607 50.2768C20.3607 50.2768 20.3607 50.2768 20.2593 50.2768L19.8537 50.3782C17.6227 51.088 17.4199 53.4205 19.6509 53.9275C19.4481 54.0289 19.3466 54.1303 19.2452 54.1303C18.6368 54.6374 18.2311 55.2458 18.0283 55.8543C19.3466 56.9698 21.0706 57.6797 22.9974 57.6797C24.9242 57.6797 26.7496 56.9698 28.0679 55.7529C28.1693 55.8543 28.2707 55.7529 28.2707 55.6515C28.3721 55.6515 28.3721 55.6515 28.2707 55.6515ZM21.9833 53.2176C21.8819 53.1162 21.7805 53.0148 21.7805 53.0148C21.6791 52.9134 21.5777 52.9134 21.4763 52.812C21.4763 52.812 21.3748 52.812 21.3748 52.7106C21.0706 52.5078 20.7664 52.305 20.665 52.0007C20.665 51.8993 20.7664 51.6965 20.9692 51.4937C21.0706 51.5951 21.172 51.6965 21.2734 51.8993C21.3748 52.0007 21.4763 52.1021 21.5777 52.2035C21.6791 52.2035 21.7805 52.305 21.7805 52.4064C21.7805 52.4064 21.7805 52.4064 21.8819 52.4064C21.8819 52.4064 21.8819 52.4064 21.9833 52.4064V53.2176Z" fill="white"/>
<path d="M25.2504 53.5656C25.1504 53.9656 24.9504 54.2656 24.9504 54.2656L21.1504 53.6656L21.3504 52.6656C21.3504 52.6656 21.4504 52.6656 21.4504 52.7656C21.5504 52.8656 21.6504 52.8656 21.7504 52.9656C21.8504 52.9656 21.8504 53.0656 21.9504 53.1656V52.4656C21.9504 52.4656 21.9504 52.4656 21.8504 52.4656C22.4504 52.7656 23.2504 52.9656 24.3504 52.2656V53.4656C24.4504 53.4656 24.5504 53.5656 25.2504 53.5656Z" fill="url(#paint2_linear_389_4216)"/>
<path d="M24.4605 47.9886C25.1739 47.9886 25.8873 47.8866 26.4988 47.6828C26.4988 47.6828 26.4988 47.5809 26.6007 47.479C26.4988 47.1732 26.3969 46.7656 26.193 46.3579C25.5816 45.2368 24.3586 44.5234 23.0337 44.5234C22.7279 44.5234 22.4347 44.5452 22.0257 44.6472C21.4815 44.8135 21.2289 44.9597 21.0999 45.0378C21.0999 45.0378 20.802 45.2381 20.5877 45.4407C20.3734 45.6432 19.8743 46.3579 19.6705 46.8675C19.4667 47.479 19.3022 47.9987 19.4041 48.6102C19.506 48.6102 19.6705 48.4981 19.7724 48.4981C20.5877 48.0905 21.1992 47.5809 21.505 46.7656C22.3203 47.479 23.3394 47.8866 24.4605 47.9886Z" fill="#758494"/>
<path d="M21 51.5996C21.1 51.6996 21.2 51.7996 21.3 51.8996C21.2 51.7996 21.1 51.6996 21 51.5996Z" fill="#3973F4"/>
<path d="M22.4001 55.2998C22.1001 55.6998 21.6001 55.6998 21.1001 55.6998C21.6001 55.1998 21.3001 53.6998 19.7001 53.8998C17.4001 53.4998 17.7001 51.0998 19.9001 50.3998L20.3001 50.2998C20.3001 50.2998 20.3001 50.2998 20.4001 50.3998C20.6001 50.8998 20.8001 51.1998 21.1001 51.5998C20.2001 52.3998 21.5001 52.5998 22.1001 53.1998C22.5001 53.3998 22.9001 54.6998 22.4001 55.2998Z" fill="#758494"/>
<defs>
<filter id="filter0_d_389_4216" x="15.0996" y="0.200195" width="111.404" height="44.2998" filterUnits="userSpaceOnUse" color-interpolation-filters="sRGB">
<feFlood flood-opacity="0" result="BackgroundImageFix"/>
<feColorMatrix in="SourceAlpha" type="matrix" values="0 0 0 0 0 0 0 0 0 0 0 0 0 0 0 0 0 0 127 0" result="hardAlpha"/>
<feOffset dy="5"/>
<feGaussianBlur stdDeviation="4.5"/>
<feColorMatrix type="matrix" values="0 0 0 0 0.397708 0 0 0 0 0.47749 0 0 0 0 0.575 0 0 0 0.17 0"/>
<feBlend mode="normal" in2="BackgroundImageFix" result="effect1_dropShadow_389_4216"/>
<feBlend mode="normal" in="SourceGraphic" in2="effect1_dropShadow_389_4216" result="shape"/>
</filter>
<filter id="filter1_d_389_4216" x="15.0996" y="65.7998" width="111.404" height="44.2998" filterUnits="userSpaceOnUse" color-interpolation-filters="sRGB">
<feFlood flood-opacity="0" result="BackgroundImageFix"/>
<feColorMatrix in="SourceAlpha" type="matrix" values="0 0 0 0 0 0 0 0 0 0 0 0 0 0 0 0 0 0 127 0" result="hardAlpha"/>
<feOffset dy="5"/>
<feGaussianBlur stdDeviation="4.5"/>
<feColorMatrix type="matrix" values="0 0 0 0 0.397708 0 0 0 0 0.47749 0 0 0 0 0.575 0 0 0 0.17 0"/>
<feBlend mode="normal" in2="BackgroundImageFix" result="effect1_dropShadow_389_4216"/>
<feBlend mode="normal" in="SourceGraphic" in2="effect1_dropShadow_389_4216" result="shape"/>
</filter>
<filter id="filter2_d_389_4216" x="0.5" y="33" width="111.404" height="44.2998" filterUnits="userSpaceOnUse" color-interpolation-filters="sRGB">
<feFlood flood-opacity="0" result="BackgroundImageFix"/>
<feColorMatrix in="SourceAlpha" type="matrix" values="0 0 0 0 0 0 0 0 0 0 0 0 0 0 0 0 0 0 127 0" result="hardAlpha"/>
<feOffset dy="5"/>
<feGaussianBlur stdDeviation="4.5"/>
<feColorMatrix type="matrix" values="0 0 0 0 0.397708 0 0 0 0 0.47749 0 0 0 0 0.575 0 0 0 0.17 0"/>
<feBlend mode="normal" in2="BackgroundImageFix" result="effect1_dropShadow_389_4216"/>
<feBlend mode="normal" in="SourceGraphic" in2="effect1_dropShadow_389_4216" result="shape"/>
</filter>
<linearGradient id="paint0_linear_389_4216" x1="37.6512" y1="22.1188" x2="37.6512" y2="20.4662" gradientUnits="userSpaceOnUse">
<stop stop-color="white"/>
<stop offset="1" stop-color="#E2E5EC"/>
</linearGradient>
<linearGradient id="paint1_linear_389_4216" x1="37.6512" y1="87.7185" x2="37.6512" y2="86.0658" gradientUnits="userSpaceOnUse">
<stop stop-color="white"/>
<stop offset="1" stop-color="#E2E5EC"/>
</linearGradient>
<linearGradient id="paint2_linear_389_4216" x1="23.2016" y1="54.2778" x2="23.2016" y2="53.176" gradientUnits="userSpaceOnUse">
<stop stop-color="white"/>
<stop offset="1" stop-color="#E2E5EC"/>
</linearGradient>
</defs>
</svg>
