<svg width="47" height="47" viewBox="0 0 47 47" fill="none" xmlns="http://www.w3.org/2000/svg">
<rect width="47" height="47" fill="#1E1E1E"/>
<g id="Partner with us">
<rect width="1440" height="3808" transform="translate(-981 -1304)" fill="#F9FBFC"/>
<g id="Frame 1000003360">
<g id="Frame 1000000905">
<g id="Frame 37555" filter="url(#filter0_d_0_1)">
<rect x="-52" y="-51" width="346" height="273" rx="24" fill="white" shape-rendering="crispEdges"/>
<g id="Frame 37552">
<g id="Group 9424">
<circle id="Ellipse 16" opacity="0.1" cx="20" cy="21" r="40" fill="#407BFF"/>
<g id="maki:residential-community">
<path id="Vector" d="M36.9728 39.1666V31.3333C39.1661 31.02 40.7328 29.14 40.7328 26.6333C40.7328 24.1266 38.5395 21.9333 36.0328 21.9333C33.5261 21.9333 31.3328 24.1266 31.3328 26.6333C31.3328 28.8266 32.8995 31.02 35.0928 31.3333V39.1666H21.9328V3.1333H6.26615V39.1666H3.13281V40.7333H43.8661V39.1666H36.9728ZM18.7995 31.3333H9.39948V28.2H18.7995V31.3333ZM18.7995 25.0666H9.39948V21.9333H18.7995V25.0666ZM18.7995 18.8H9.39948V15.6666H18.7995V18.8ZM18.7995 12.5333H9.39948V9.39997H18.7995V12.5333Z" fill="#407BFF"/>
</g>
</g>
</g>
</g>
</g>
</g>
</g>
<defs>
<filter id="filter0_d_0_1" x="-81" y="-56" width="404" height="331" filterUnits="userSpaceOnUse" color-interpolation-filters="sRGB">
<feFlood flood-opacity="0" result="BackgroundImageFix"/>
<feColorMatrix in="SourceAlpha" type="matrix" values="0 0 0 0 0 0 0 0 0 0 0 0 0 0 0 0 0 0 127 0" result="hardAlpha"/>
<feMorphology radius="3" operator="erode" in="SourceAlpha" result="effect1_dropShadow_0_1"/>
<feOffset dy="24"/>
<feGaussianBlur stdDeviation="16"/>
<feComposite in2="hardAlpha" operator="out"/>
<feColorMatrix type="matrix" values="0 0 0 0 0.0102503 0 0 0 0 0.0339031 0 0 0 0 0.196094 0 0 0 0.04 0"/>
<feBlend mode="normal" in2="BackgroundImageFix" result="effect1_dropShadow_0_1"/>
<feBlend mode="normal" in="SourceGraphic" in2="effect1_dropShadow_0_1" result="shape"/>
</filter>
</defs>
</svg>
