<svg width="40" height="40" viewBox="0 0 40 40" fill="none" xmlns="http://www.w3.org/2000/svg">
<rect width="40" height="40" fill="#1E1E1E"/>
<g id="Partner with us">
<rect width="1440" height="3808" transform="translate(-599 -1305)" fill="#F9FBFC"/>
<g id="Frame 1000003360">
<g id="Frame 1000000905">
<g id="Frame 37553" filter="url(#filter0_d_0_1)">
<rect x="-52" y="-52" width="346" height="273" rx="24" fill="white" shape-rendering="crispEdges"/>
<g id="Frame 37552">
<g id="Group 9425">
<circle id="Ellipse 16" opacity="0.1" cx="20" cy="20" r="40" fill="#407BFF"/>
<g id="mdi:calendar">
<path id="Vector" d="M31.6667 31.6666H8.33333V13.3333H31.6667M26.6667 1.66663V4.99996H13.3333V1.66663H10V4.99996H8.33333C6.48333 4.99996 5 6.48329 5 8.33329V31.6666C5 32.5507 5.35119 33.3985 5.97631 34.0236C6.60143 34.6488 7.44928 35 8.33333 35H31.6667C32.5507 35 33.3986 34.6488 34.0237 34.0236C34.6488 33.3985 35 32.5507 35 31.6666V8.33329C35 7.44924 34.6488 6.60139 34.0237 5.97627C33.3986 5.35115 32.5507 4.99996 31.6667 4.99996H30V1.66663M28.3333 20H20V28.3333H28.3333V20Z" fill="#407BFF"/>
</g>
</g>
</g>
</g>
</g>
</g>
</g>
<defs>
<filter id="filter0_d_0_1" x="-81" y="-57" width="404" height="331" filterUnits="userSpaceOnUse" color-interpolation-filters="sRGB">
<feFlood flood-opacity="0" result="BackgroundImageFix"/>
<feColorMatrix in="SourceAlpha" type="matrix" values="0 0 0 0 0 0 0 0 0 0 0 0 0 0 0 0 0 0 127 0" result="hardAlpha"/>
<feMorphology radius="3" operator="erode" in="SourceAlpha" result="effect1_dropShadow_0_1"/>
<feOffset dy="24"/>
<feGaussianBlur stdDeviation="16"/>
<feComposite in2="hardAlpha" operator="out"/>
<feColorMatrix type="matrix" values="0 0 0 0 0.0102503 0 0 0 0 0.0339031 0 0 0 0 0.196094 0 0 0 0.04 0"/>
<feBlend mode="normal" in2="BackgroundImageFix" result="effect1_dropShadow_0_1"/>
<feBlend mode="normal" in="SourceGraphic" in2="effect1_dropShadow_0_1" result="shape"/>
</filter>
</defs>
</svg>
