<svg width="46" height="46" viewBox="0 0 46 46" fill="none" xmlns="http://www.w3.org/2000/svg">
<path d="M38.8125 12.9375H10.0625C9.68125 12.9375 9.31562 12.786 9.04603 12.5165C8.77645 12.2469 8.625 11.8812 8.625 11.5C8.625 11.1188 8.77645 10.7531 9.04603 10.4835C9.31562 10.214 9.68125 10.0625 10.0625 10.0625H34.5C34.8812 10.0625 35.2469 9.91105 35.5165 9.64147C35.7861 9.37188 35.9375 9.00625 35.9375 8.625C35.9375 8.24375 35.7861 7.87812 35.5165 7.60853C35.2469 7.33895 34.8812 7.1875 34.5 7.1875H10.0625C8.91875 7.1875 7.82185 7.64185 7.0131 8.4506C6.20435 9.25935 5.75 10.3563 5.75 11.5V34.5C5.75 35.6437 6.20435 36.7406 7.0131 37.5494C7.82185 38.3581 8.91875 38.8125 10.0625 38.8125H38.8125C39.575 38.8125 40.3063 38.5096 40.8454 37.9704C41.3846 37.4313 41.6875 36.7 41.6875 35.9375V15.8125C41.6875 15.05 41.3846 14.3187 40.8454 13.7796C40.3063 13.2404 39.575 12.9375 38.8125 12.9375ZM32.3438 27.3125C31.9173 27.3125 31.5004 27.186 31.1458 26.9491C30.7912 26.7122 30.5148 26.3754 30.3516 25.9814C30.1884 25.5874 30.1457 25.1539 30.2289 24.7356C30.3121 24.3173 30.5175 23.9331 30.8191 23.6316C31.1206 23.33 31.5048 23.1246 31.9231 23.0414C32.3414 22.9582 32.7749 23.0009 33.1689 23.1641C33.5629 23.3273 33.8997 23.6037 34.1366 23.9583C34.3735 24.3129 34.5 24.7298 34.5 25.1562C34.5 25.7281 34.2728 26.2766 33.8684 26.6809C33.4641 27.0853 32.9156 27.3125 32.3438 27.3125Z" fill="#407BFF"/>
</svg>
